<mxfile host="app.diagrams.net" modified="2022-11-30T00:27:47.840Z" agent="5.0 (Windows NT 10.0; Win64; x64) AppleWebKit/537.36 (KHTML, like Gecko) Chrome/107.0.0.0 Safari/537.36" etag="q8RGJVBak81RsWZrq8nI" version="20.5.3" type="github">
  <diagram id="2-5Cp_Lj5YXHeEUB76e6" name="Página-1">
    <mxGraphModel dx="1221" dy="644" grid="1" gridSize="10" guides="1" tooltips="1" connect="1" arrows="1" fold="1" page="1" pageScale="1" pageWidth="827" pageHeight="1169" math="0" shadow="0">
      <root>
        <mxCell id="0" />
        <mxCell id="1" parent="0" />
        <mxCell id="NpaPo7YRu0MvinR8lYgY-16" style="edgeStyle=orthogonalEdgeStyle;rounded=0;orthogonalLoop=1;jettySize=auto;html=1;exitX=0.5;exitY=1;exitDx=0;exitDy=0;entryX=0.493;entryY=0.136;entryDx=0;entryDy=0;entryPerimeter=0;" edge="1" parent="1" source="NpaPo7YRu0MvinR8lYgY-1" target="NpaPo7YRu0MvinR8lYgY-10">
          <mxGeometry relative="1" as="geometry" />
        </mxCell>
        <mxCell id="NpaPo7YRu0MvinR8lYgY-1" value="Peça" style="ellipse;whiteSpace=wrap;html=1;" vertex="1" parent="1">
          <mxGeometry x="344" y="30" width="136" height="100" as="geometry" />
        </mxCell>
        <mxCell id="NpaPo7YRu0MvinR8lYgY-19" style="edgeStyle=orthogonalEdgeStyle;rounded=0;orthogonalLoop=1;jettySize=auto;html=1;exitX=0.5;exitY=1;exitDx=0;exitDy=0;entryX=0.5;entryY=0;entryDx=0;entryDy=0;" edge="1" parent="1" source="NpaPo7YRu0MvinR8lYgY-5" target="NpaPo7YRu0MvinR8lYgY-17">
          <mxGeometry relative="1" as="geometry" />
        </mxCell>
        <mxCell id="NpaPo7YRu0MvinR8lYgY-5" value="Entrada&lt;br&gt;(Compra da peça)" style="html=1;strokeWidth=2;shape=manualInput;whiteSpace=wrap;rounded=1;size=27;arcSize=11;" vertex="1" parent="1">
          <mxGeometry x="220" y="300" width="120" height="70" as="geometry" />
        </mxCell>
        <mxCell id="NpaPo7YRu0MvinR8lYgY-21" style="edgeStyle=orthogonalEdgeStyle;rounded=0;orthogonalLoop=1;jettySize=auto;html=1;exitX=0.5;exitY=1;exitDx=0;exitDy=0;entryX=0.5;entryY=0;entryDx=0;entryDy=0;" edge="1" parent="1" source="NpaPo7YRu0MvinR8lYgY-6" target="NpaPo7YRu0MvinR8lYgY-23">
          <mxGeometry relative="1" as="geometry">
            <mxPoint x="550" y="420" as="targetPoint" />
          </mxGeometry>
        </mxCell>
        <mxCell id="NpaPo7YRu0MvinR8lYgY-6" value="Saída&lt;br&gt;(Venda da peça)" style="html=1;strokeWidth=2;shape=manualInput;whiteSpace=wrap;rounded=1;size=27;arcSize=11;" vertex="1" parent="1">
          <mxGeometry x="490" y="290" width="120" height="80" as="geometry" />
        </mxCell>
        <mxCell id="NpaPo7YRu0MvinR8lYgY-13" style="edgeStyle=orthogonalEdgeStyle;rounded=0;orthogonalLoop=1;jettySize=auto;html=1;exitX=0.75;exitY=1;exitDx=0;exitDy=0;entryX=0;entryY=0.75;entryDx=0;entryDy=0;" edge="1" parent="1" source="NpaPo7YRu0MvinR8lYgY-10" target="NpaPo7YRu0MvinR8lYgY-6">
          <mxGeometry relative="1" as="geometry" />
        </mxCell>
        <mxCell id="NpaPo7YRu0MvinR8lYgY-14" style="edgeStyle=orthogonalEdgeStyle;rounded=0;orthogonalLoop=1;jettySize=auto;html=1;exitX=0.25;exitY=1;exitDx=0;exitDy=0;entryX=1;entryY=0.5;entryDx=0;entryDy=0;" edge="1" parent="1" source="NpaPo7YRu0MvinR8lYgY-10" target="NpaPo7YRu0MvinR8lYgY-5">
          <mxGeometry relative="1" as="geometry" />
        </mxCell>
        <mxCell id="NpaPo7YRu0MvinR8lYgY-10" value="&lt;br&gt;Quantidade &lt;br&gt;da&lt;br&gt;peça" style="shape=manualInput;whiteSpace=wrap;html=1;size=27;" vertex="1" parent="1">
          <mxGeometry x="352" y="180" width="120" height="90" as="geometry" />
        </mxCell>
        <mxCell id="NpaPo7YRu0MvinR8lYgY-33" style="edgeStyle=orthogonalEdgeStyle;rounded=0;orthogonalLoop=1;jettySize=auto;html=1;exitX=0.5;exitY=1;exitDx=0;exitDy=0;entryX=0;entryY=0;entryDx=78.75;entryDy=0;entryPerimeter=0;" edge="1" parent="1" source="NpaPo7YRu0MvinR8lYgY-17" target="NpaPo7YRu0MvinR8lYgY-30">
          <mxGeometry relative="1" as="geometry" />
        </mxCell>
        <mxCell id="NpaPo7YRu0MvinR8lYgY-17" value="Quantidade + estoque" style="rounded=0;whiteSpace=wrap;html=1;" vertex="1" parent="1">
          <mxGeometry x="215" y="420" width="130" height="60" as="geometry" />
        </mxCell>
        <mxCell id="NpaPo7YRu0MvinR8lYgY-24" style="edgeStyle=orthogonalEdgeStyle;rounded=0;orthogonalLoop=1;jettySize=auto;html=1;exitX=1;exitY=0.5;exitDx=0;exitDy=0;entryX=0;entryY=0.5;entryDx=0;entryDy=0;" edge="1" parent="1" source="NpaPo7YRu0MvinR8lYgY-23">
          <mxGeometry relative="1" as="geometry">
            <mxPoint x="670" y="490" as="targetPoint" />
          </mxGeometry>
        </mxCell>
        <mxCell id="NpaPo7YRu0MvinR8lYgY-27" style="edgeStyle=orthogonalEdgeStyle;rounded=0;orthogonalLoop=1;jettySize=auto;html=1;exitX=0.5;exitY=1;exitDx=0;exitDy=0;entryX=0.5;entryY=0;entryDx=0;entryDy=0;" edge="1" parent="1" source="NpaPo7YRu0MvinR8lYgY-23" target="NpaPo7YRu0MvinR8lYgY-25">
          <mxGeometry relative="1" as="geometry" />
        </mxCell>
        <mxCell id="NpaPo7YRu0MvinR8lYgY-23" value="Quantidade &amp;lt;= saldo do estoque" style="rhombus;whiteSpace=wrap;html=1;" vertex="1" parent="1">
          <mxGeometry x="465" y="430" width="170" height="120" as="geometry" />
        </mxCell>
        <mxCell id="NpaPo7YRu0MvinR8lYgY-34" style="edgeStyle=orthogonalEdgeStyle;rounded=0;orthogonalLoop=1;jettySize=auto;html=1;exitX=0;exitY=0.5;exitDx=0;exitDy=0;entryX=1;entryY=0.5;entryDx=0;entryDy=0;entryPerimeter=0;" edge="1" parent="1" source="NpaPo7YRu0MvinR8lYgY-25" target="NpaPo7YRu0MvinR8lYgY-30">
          <mxGeometry relative="1" as="geometry" />
        </mxCell>
        <mxCell id="NpaPo7YRu0MvinR8lYgY-25" value="Quantidade - Saldo do estoque da peça" style="rounded=0;whiteSpace=wrap;html=1;" vertex="1" parent="1">
          <mxGeometry x="440" y="585" width="220" height="60" as="geometry" />
        </mxCell>
        <mxCell id="NpaPo7YRu0MvinR8lYgY-26" value="Não" style="text;html=1;align=center;verticalAlign=middle;resizable=0;points=[];autosize=1;strokeColor=none;fillColor=none;" vertex="1" parent="1">
          <mxGeometry x="620" y="460" width="50" height="30" as="geometry" />
        </mxCell>
        <mxCell id="NpaPo7YRu0MvinR8lYgY-28" value="Sim" style="text;html=1;align=center;verticalAlign=middle;resizable=0;points=[];autosize=1;strokeColor=none;fillColor=none;" vertex="1" parent="1">
          <mxGeometry x="550" y="555" width="40" height="30" as="geometry" />
        </mxCell>
        <mxCell id="NpaPo7YRu0MvinR8lYgY-29" value="Saldo insuficiente" style="shape=display;whiteSpace=wrap;html=1;" vertex="1" parent="1">
          <mxGeometry x="680" y="460" width="110" height="60" as="geometry" />
        </mxCell>
        <mxCell id="NpaPo7YRu0MvinR8lYgY-45" style="edgeStyle=orthogonalEdgeStyle;rounded=0;orthogonalLoop=1;jettySize=auto;html=1;exitX=0;exitY=0;exitDx=78.75;exitDy=60;exitPerimeter=0;entryX=0.493;entryY=0.209;entryDx=0;entryDy=0;entryPerimeter=0;" edge="1" parent="1" source="NpaPo7YRu0MvinR8lYgY-30" target="NpaPo7YRu0MvinR8lYgY-35">
          <mxGeometry relative="1" as="geometry" />
        </mxCell>
        <mxCell id="NpaPo7YRu0MvinR8lYgY-30" value="Saldo atualizado do estoque" style="shape=display;whiteSpace=wrap;html=1;" vertex="1" parent="1">
          <mxGeometry x="202" y="585" width="150" height="60" as="geometry" />
        </mxCell>
        <mxCell id="NpaPo7YRu0MvinR8lYgY-36" style="edgeStyle=orthogonalEdgeStyle;rounded=0;orthogonalLoop=1;jettySize=auto;html=1;entryX=0;entryY=0.5;entryDx=0;entryDy=0;startArrow=none;" edge="1" parent="1" target="NpaPo7YRu0MvinR8lYgY-10">
          <mxGeometry relative="1" as="geometry">
            <mxPoint x="158" y="740" as="sourcePoint" />
            <Array as="points">
              <mxPoint x="120" y="740" />
              <mxPoint x="120" y="225" />
            </Array>
          </mxGeometry>
        </mxCell>
        <mxCell id="NpaPo7YRu0MvinR8lYgY-38" style="edgeStyle=orthogonalEdgeStyle;rounded=0;orthogonalLoop=1;jettySize=auto;html=1;exitX=1;exitY=0.75;exitDx=0;exitDy=0;entryX=0;entryY=0.5;entryDx=0;entryDy=0;entryPerimeter=0;" edge="1" parent="1" source="NpaPo7YRu0MvinR8lYgY-35" target="NpaPo7YRu0MvinR8lYgY-37">
          <mxGeometry relative="1" as="geometry" />
        </mxCell>
        <mxCell id="NpaPo7YRu0MvinR8lYgY-35" value="Deseja continuar?" style="shape=manualInput;whiteSpace=wrap;html=1;" vertex="1" parent="1">
          <mxGeometry x="223.5" y="665" width="113" height="80" as="geometry" />
        </mxCell>
        <mxCell id="NpaPo7YRu0MvinR8lYgY-37" value="sistema encerrado" style="shape=display;whiteSpace=wrap;html=1;" vertex="1" parent="1">
          <mxGeometry x="465" y="710" width="160" height="60" as="geometry" />
        </mxCell>
        <mxCell id="NpaPo7YRu0MvinR8lYgY-39" value="Não" style="text;html=1;align=center;verticalAlign=middle;resizable=0;points=[];autosize=1;strokeColor=none;fillColor=none;" vertex="1" parent="1">
          <mxGeometry x="344" y="700" width="50" height="30" as="geometry" />
        </mxCell>
        <mxCell id="NpaPo7YRu0MvinR8lYgY-41" value="" style="edgeStyle=orthogonalEdgeStyle;rounded=0;orthogonalLoop=1;jettySize=auto;html=1;exitX=0;exitY=0.75;exitDx=0;exitDy=0;endArrow=none;" edge="1" parent="1" source="NpaPo7YRu0MvinR8lYgY-35">
          <mxGeometry relative="1" as="geometry">
            <mxPoint x="223.5" y="740" as="sourcePoint" />
            <mxPoint x="150" y="740" as="targetPoint" />
          </mxGeometry>
        </mxCell>
        <mxCell id="NpaPo7YRu0MvinR8lYgY-42" value="Sim" style="text;html=1;align=center;verticalAlign=middle;resizable=0;points=[];autosize=1;strokeColor=none;fillColor=none;" vertex="1" parent="1">
          <mxGeometry x="140" y="715" width="40" height="30" as="geometry" />
        </mxCell>
      </root>
    </mxGraphModel>
  </diagram>
</mxfile>
